<svg xmlns="http://www.w3.org/2000/svg" width="27" height="45" viewBox="0 0 27 45" fill="none">
  <path id="Vector" d="M13.7941 20.8427C11.7389 20.8471 9.71982 21.383 7.93294 22.3982C10.449 15.8898 14.6128 10.1466 20.0163 5.73155C20.3545 5.48777 20.6392 5.17735 20.853 4.8194C21.0667 4.46146 21.205 4.06355 21.2592 3.65018C21.3134 3.23681 21.2825 2.81672 21.1682 2.41575C21.054 2.01479 20.859 1.64144 20.5951 1.31869C20.3312 0.995928 20.004 0.730591 19.6337 0.539004C19.2634 0.347416 18.8579 0.233634 18.442 0.204656C18.0261 0.175678 17.6086 0.232117 17.2153 0.370503C16.8221 0.508888 16.4613 0.726291 16.1552 1.00933C5.04406 10.0371 0.0996094 22.5371 0.0996094 30.2871C0.112771 32.9963 0.905566 35.6445 2.38329 37.9153C3.86101 40.186 5.96119 41.9834 8.43294 43.0927C10.103 43.9048 11.9371 44.3229 13.7941 44.3149C15.387 44.3923 16.9791 44.1454 18.4738 43.5892C19.9684 43.0329 21.3346 42.1789 22.4893 41.0789C23.6441 39.9789 24.5634 38.6559 25.1916 37.1899C25.8197 35.724 26.1436 34.1458 26.1436 32.551C26.1436 30.9562 25.8197 29.378 25.1916 27.9121C24.5634 26.4461 23.6441 25.1231 22.4893 24.0231C21.3346 22.9231 19.9684 22.0691 18.4738 21.5128C16.9791 20.9566 15.387 20.7097 13.7941 20.7871V20.8427Z" fill="white"/>
</svg>