<svg xmlns="http://www.w3.org/2000/svg" width="20" height="21" viewBox="0 0 20 21" fill="none" class="icon icon-cart">
  <g id="basket 1, cart, shopping">
    <path id="Icon" d="M1.6665 3.83334H4.1665L4.58317 6.33334M4.58317 6.33334L5.83317 13.8333H15.4165L16.6665 6.33334H4.58317Z" stroke="#14154C" stroke-width="1.66667" stroke-linecap="round" stroke-linejoin="round"/>
    <path id="Icon_2" d="M6.87484 18.2083C7.45013 18.2083 7.9165 17.742 7.9165 17.1667C7.9165 16.5914 7.45013 16.125 6.87484 16.125C6.29954 16.125 5.83317 16.5914 5.83317 17.1667C5.83317 17.742 6.29954 18.2083 6.87484 18.2083ZM14.3748 18.2083C14.9501 18.2083 15.4165 17.742 15.4165 17.1667C15.4165 16.5914 14.9501 16.125 14.3748 16.125C13.7995 16.125 13.3332 16.5914 13.3332 17.1667C13.3332 17.742 13.7995 18.2083 14.3748 18.2083Z" fill="black" stroke="#14154C" stroke-width="0.416667" stroke-linecap="round" stroke-linejoin="round"/>
  </g>
</svg>